<?xml version="1.0" encoding="utf-8"?>
<!-- Generator: Adobe Illustrator 23.1.0, SVG Export Plug-In . SVG Version: 6.00 Build 0)  -->
<svg version="1.1" id="Layer_1" xmlns="http://www.w3.org/2000/svg" xmlns:xlink="http://www.w3.org/1999/xlink" x="0px" y="0px"
	 viewBox="0 0 2000 2000" style="enable-background:new 0 0 2000 2000;" xml:space="preserve">
<style type="text/css">
	.st0{fill:#00807F;}
	.st1{fill:#2D2D2D;}
</style>
<g>
	<g>
		<g>
			<path class="st0" d="M530.45,1024.26c-5.79,1.09-11.64,1.76-17.5,2.25c-5.87,0.49-11.75,0.75-17.66,0.82
				c-11.8,0.11-23.67-0.61-35.53-2.38l-4.44-0.74l-4.44-0.84c-1.48-0.3-2.95-0.66-4.43-0.99c-1.48-0.34-2.95-0.75-4.42-1.13
				c-5.89-1.59-11.76-3.57-17.51-6.19l-2.15-0.99c-0.72-0.34-1.42-0.73-2.13-1.1l-2.12-1.12c-0.7-0.38-1.39-0.83-2.09-1.24
				l-2.08-1.26c-0.69-0.44-1.35-0.94-2.03-1.41l-2.02-1.43c-0.68-0.54-1.37-1.11-2.05-1.67c-0.7-0.55-1.33-1.17-1.96-1.78
				c-0.63-0.62-1.29-1.21-1.86-1.89l-1.76-1.99c-0.55-0.7-1.08-1.4-1.61-2.11c-0.55-0.69-1.01-1.45-1.49-2.2
				c-0.48-0.75-0.97-1.49-1.37-2.28c-0.42-0.78-0.85-1.56-1.25-2.35l-1.09-2.43c-1.34-3.29-2.34-6.72-2.91-10.25
				c-0.52-3.53-0.65-7.12-0.37-10.68c0.36-3.56,1.12-7.07,2.26-10.45c1.17-3.29,2.68-6.45,4.5-9.38c1.82-2.93,3.92-5.64,6.23-8.1
				c2.29-2.48,4.82-4.65,7.44-6.62c5.23-3.95,10.9-6.97,16.69-9.31c11.6-4.67,23.58-6.93,35.45-7.89
				c11.88-0.92,23.71-0.63,35.38,0.82c-5.78,1.14-11.51,2.17-17.19,3.36c-5.67,1.21-11.29,2.47-16.8,3.95
				c-11.02,2.93-21.73,6.59-31.25,11.72l-0.89,0.47l-0.87,0.5l-1.74,1l-1.68,1.06l-0.84,0.53l-0.81,0.56
				c-2.19,1.45-4.23,3.04-6.14,4.72c-3.82,3.36-6.96,7.17-9.25,11.31c-1.13,2.07-2.07,4.22-2.75,6.44c-0.62,2.17-1.04,4.37-1.21,6.6
				c-0.11,2.23,0,4.48,0.36,6.69c0.37,2.22,1.03,4.38,1.88,6.47c1.74,4.17,4.41,7.96,7.8,11l1.29,1.13l1.51,1.13
				c0.51,0.37,0.99,0.77,1.51,1.13l1.61,1.06c0.54,0.35,1.06,0.72,1.62,1.05l1.7,0.98c0.57,0.32,1.12,0.67,1.7,0.98l1.77,0.92
				c4.72,2.43,9.76,4.54,14.96,6.41c1.31,0.44,2.6,0.93,3.93,1.35l3.99,1.26l4.03,1.2l4.07,1.11c10.91,2.89,22.15,5.13,33.51,7.08
				C507.31,1021.1,518.8,1022.71,530.45,1024.26z"/>
			<path class="st0" d="M522.26,975.74c5.79-1.09,11.64-1.76,17.5-2.25c5.87-0.49,11.75-0.75,17.66-0.82
				c11.8-0.11,23.67,0.61,35.53,2.38l4.44,0.74l4.44,0.84c1.48,0.3,2.95,0.66,4.43,0.99c1.48,0.34,2.95,0.75,4.42,1.13
				c5.89,1.59,11.76,3.57,17.51,6.19l2.15,0.99c0.72,0.34,1.42,0.73,2.13,1.1l2.12,1.12c0.7,0.38,1.39,0.83,2.09,1.24l2.08,1.26
				c0.69,0.44,1.35,0.94,2.03,1.41l2.02,1.43c0.68,0.54,1.37,1.11,2.05,1.67c0.7,0.55,1.33,1.17,1.96,1.78
				c0.63,0.62,1.29,1.21,1.86,1.89l1.76,1.99c0.55,0.7,1.08,1.4,1.61,2.11c0.55,0.69,1.01,1.45,1.49,2.2
				c0.48,0.75,0.97,1.48,1.37,2.28c0.42,0.78,0.85,1.56,1.25,2.35l1.09,2.43c1.34,3.29,2.34,6.72,2.91,10.25
				c0.52,3.53,0.65,7.12,0.37,10.68c-0.36,3.56-1.12,7.07-2.26,10.45c-1.17,3.29-2.68,6.45-4.5,9.38c-1.82,2.93-3.92,5.64-6.23,8.1
				c-2.29,2.48-4.82,4.65-7.44,6.62c-5.23,3.95-10.9,6.97-16.69,9.31c-11.6,4.67-23.58,6.93-35.45,7.89
				c-11.88,0.92-23.71,0.63-35.38-0.82c5.78-1.14,11.51-2.17,17.19-3.36c5.67-1.21,11.29-2.47,16.8-3.95
				c11.02-2.93,21.73-6.59,31.25-11.72l0.89-0.47l0.87-0.5l1.74-1l1.68-1.06l0.84-0.53l0.81-0.56c2.19-1.45,4.23-3.04,6.14-4.72
				c3.82-3.36,6.96-7.17,9.25-11.31c1.13-2.07,2.07-4.22,2.75-6.44c0.62-2.17,1.04-4.37,1.21-6.6c0.11-2.23,0-4.48-0.36-6.69
				c-0.37-2.22-1.03-4.38-1.88-6.47c-1.74-4.17-4.41-7.96-7.8-11l-1.29-1.13l-1.51-1.13c-0.51-0.37-0.99-0.77-1.51-1.13l-1.61-1.06
				c-0.54-0.35-1.06-0.72-1.62-1.05l-1.7-0.98c-0.57-0.32-1.12-0.67-1.7-0.98l-1.77-0.92c-4.72-2.43-9.76-4.54-14.96-6.41
				c-1.31-0.44-2.6-0.93-3.93-1.35l-3.99-1.26l-4.03-1.2l-4.07-1.11c-10.91-2.89-22.15-5.13-33.51-7.08
				C545.4,978.9,533.91,977.29,522.26,975.74z"/>
		</g>
	</g>
	<g>
		<g>
			<path class="st1" d="M502.1,1004.09c-1.09-5.79-1.76-11.64-2.25-17.5c-0.49-5.87-0.75-11.75-0.82-17.66
				c-0.11-11.8,0.61-23.67,2.38-35.53l0.74-4.44l0.84-4.44c0.3-1.48,0.66-2.95,0.99-4.43c0.34-1.48,0.75-2.95,1.13-4.42
				c1.59-5.89,3.57-11.76,6.19-17.51l0.99-2.15c0.34-0.72,0.73-1.42,1.1-2.13l1.12-2.12c0.38-0.7,0.83-1.39,1.24-2.09l1.26-2.08
				c0.44-0.69,0.94-1.35,1.41-2.03l1.43-2.02c0.54-0.68,1.11-1.37,1.67-2.05c0.55-0.7,1.17-1.33,1.78-1.96
				c0.62-0.63,1.21-1.29,1.89-1.86l1.99-1.76c0.7-0.55,1.4-1.08,2.11-1.61c0.69-0.55,1.45-1.01,2.2-1.49
				c0.75-0.48,1.49-0.97,2.28-1.37c0.78-0.42,1.56-0.85,2.35-1.25l2.43-1.09c3.29-1.34,6.72-2.34,10.25-2.91
				c3.53-0.52,7.12-0.65,10.68-0.37c3.56,0.36,7.07,1.12,10.45,2.26c3.29,1.17,6.45,2.68,9.38,4.5c2.93,1.82,5.64,3.92,8.1,6.23
				c2.48,2.29,4.65,4.82,6.62,7.44c3.95,5.23,6.97,10.9,9.31,16.69c4.67,11.6,6.93,23.58,7.89,35.45
				c0.92,11.88,0.63,23.71-0.82,35.38c-1.14-5.78-2.17-11.51-3.36-17.19c-1.21-5.67-2.47-11.29-3.95-16.8
				c-2.93-11.02-6.59-21.73-11.72-31.25l-0.47-0.89l-0.5-0.87l-1-1.74l-1.06-1.68l-0.53-0.84l-0.56-0.81
				c-1.45-2.19-3.04-4.23-4.72-6.14c-3.36-3.82-7.17-6.96-11.31-9.25c-2.07-1.13-4.22-2.07-6.44-2.75c-2.17-0.62-4.37-1.04-6.6-1.21
				c-2.23-0.11-4.48,0-6.69,0.36c-2.22,0.37-4.38,1.03-6.47,1.88c-4.17,1.74-7.96,4.41-11,7.8l-1.13,1.29l-1.13,1.51
				c-0.37,0.51-0.77,0.99-1.13,1.51l-1.06,1.6c-0.35,0.54-0.72,1.06-1.05,1.62l-0.98,1.7c-0.32,0.57-0.67,1.12-0.98,1.7l-0.92,1.77
				c-2.43,4.72-4.54,9.76-6.41,14.96c-0.44,1.31-0.93,2.6-1.35,3.93l-1.26,3.99l-1.2,4.03l-1.11,4.07
				c-2.89,10.91-5.13,22.15-7.08,33.51C505.26,980.95,503.65,992.45,502.1,1004.09z"/>
			<path class="st1" d="M550.62,995.91c1.09,5.79,1.76,11.64,2.25,17.5c0.49,5.87,0.75,11.75,0.82,17.66
				c0.11,11.8-0.61,23.67-2.38,35.53l-0.74,4.44l-0.84,4.44c-0.3,1.48-0.66,2.95-0.99,4.43c-0.34,1.48-0.75,2.95-1.13,4.42
				c-1.59,5.89-3.57,11.76-6.19,17.51l-0.99,2.15c-0.34,0.72-0.73,1.42-1.1,2.13l-1.12,2.12c-0.38,0.7-0.83,1.39-1.24,2.09
				l-1.26,2.08c-0.44,0.69-0.94,1.35-1.41,2.03l-1.43,2.02c-0.54,0.68-1.11,1.37-1.67,2.05c-0.55,0.7-1.17,1.33-1.78,1.96
				c-0.62,0.63-1.21,1.29-1.89,1.86l-1.99,1.76c-0.7,0.55-1.4,1.08-2.11,1.61c-0.69,0.55-1.45,1.01-2.2,1.49
				c-0.75,0.48-1.49,0.97-2.28,1.37c-0.78,0.42-1.56,0.85-2.35,1.25l-2.43,1.09c-3.29,1.34-6.72,2.34-10.25,2.91
				c-3.53,0.52-7.12,0.65-10.68,0.37c-3.56-0.36-7.07-1.12-10.45-2.26c-3.29-1.17-6.45-2.68-9.38-4.5c-2.93-1.82-5.64-3.92-8.1-6.23
				c-2.48-2.29-4.65-4.82-6.62-7.44c-3.95-5.23-6.97-10.9-9.31-16.69c-4.67-11.6-6.93-23.58-7.89-35.45
				c-0.92-11.88-0.63-23.71,0.82-35.38c1.14,5.78,2.17,11.51,3.36,17.19c1.21,5.67,2.47,11.29,3.95,16.8
				c2.93,11.02,6.59,21.73,11.72,31.24l0.47,0.89l0.5,0.87l1,1.74l1.06,1.68l0.53,0.84l0.56,0.81c1.45,2.19,3.04,4.23,4.72,6.14
				c3.36,3.82,7.17,6.96,11.31,9.25c2.07,1.13,4.22,2.07,6.44,2.75c2.17,0.62,4.37,1.04,6.6,1.21c2.23,0.11,4.48,0,6.69-0.36
				c2.22-0.37,4.38-1.03,6.47-1.88c4.17-1.74,7.96-4.41,11-7.8l1.13-1.29l1.13-1.51c0.37-0.51,0.77-0.99,1.13-1.51l1.06-1.61
				c0.35-0.54,0.72-1.06,1.05-1.62l0.98-1.7c0.32-0.57,0.67-1.12,0.98-1.7l0.92-1.77c2.43-4.72,4.54-9.77,6.41-14.96
				c0.44-1.31,0.93-2.6,1.35-3.93l1.26-3.99l1.2-4.03l1.11-4.07c2.89-10.91,5.13-22.15,7.08-33.51
				C547.45,1019.05,549.07,1007.55,550.62,995.91z"/>
		</g>
	</g>
	<path class="st0" d="M886.47,1025.36c0,11.36-1.97,21.81-5.92,31.35c-3.95,9.54-9.39,17.75-16.32,24.65
		c-6.94,6.89-15.18,12.29-24.71,16.19c-9.54,3.9-19.9,5.85-31.09,5.85h-91.31c-2.43,0-4.68-0.43-6.76-1.3
		c-2.08-0.87-3.88-2.06-5.4-3.58c-1.52-1.52-2.71-3.32-3.58-5.4c-0.87-2.08-1.3-4.34-1.3-6.76V933.92c0-2.34,0.43-4.55,1.3-6.63
		c0.87-2.08,2.06-3.9,3.58-5.46c1.52-1.56,3.32-2.77,5.4-3.64c2.08-0.87,4.34-1.3,6.76-1.3h91.31c11.19,0,21.55,1.95,31.09,5.85
		c9.54,3.9,17.77,9.3,24.71,16.19c6.94,6.89,12.38,15.13,16.32,24.71c3.95,9.58,5.92,20.01,5.92,31.28V1025.36z M852.65,994.93
		c0-6.59-1.06-12.62-3.19-18.08c-2.13-5.46-5.14-10.12-9.04-13.98c-3.9-3.86-8.56-6.85-13.98-8.97c-5.42-2.12-11.43-3.19-18.02-3.19
		H733.9v118.88h74.53c6.59,0,12.59-1.06,18.02-3.19c5.42-2.12,10.08-5.12,13.98-8.97c3.9-3.86,6.91-8.5,9.04-13.92
		c2.12-5.42,3.19-11.47,3.19-18.14V994.93z"/>
	<g>
		<path class="st1" d="M953.72,993.1h118.75v-76.22h33.82v186.52h-33.82v-76.22H953.72v76.22H919.9V916.88h33.82V993.1z"/>
		<path class="st1" d="M1294.11,1055.93c0,5.81-0.74,11.03-2.21,15.67c-1.47,4.64-3.43,8.71-5.85,12.23
			c-2.43,3.51-5.25,6.5-8.45,8.97c-3.21,2.47-6.57,4.49-10.08,6.05c-3.51,1.56-7.07,2.71-10.67,3.45c-3.6,0.74-7,1.11-10.21,1.11
			h-61c-4.68,0-9.8-0.82-15.35-2.47c-5.55-1.65-10.69-4.36-15.41-8.13c-4.73-3.77-8.67-8.67-11.84-14.7
			c-3.17-6.03-4.75-13.42-4.75-22.18v-45.78c0-8.67,1.58-16.02,4.75-22.05c3.16-6.03,7.11-10.93,11.84-14.7
			c4.73-3.77,9.86-6.48,15.41-8.13c5.55-1.65,10.67-2.47,15.35-2.47h61c8.67,0,16.04,1.56,22.11,4.68
			c6.07,3.12,10.97,7.05,14.7,11.77c3.73,4.73,6.44,9.86,8.13,15.41c1.69,5.55,2.54,10.71,2.54,15.48V1055.93z M1260.29,1010.4
			c0-4.68-1.17-8.15-3.51-10.41c-2.34-2.25-5.72-3.38-10.15-3.38h-60.74c-4.51,0-7.93,1.15-10.28,3.45
			c-2.34,2.3-3.51,5.66-3.51,10.08v45.78c0,4.42,1.17,7.8,3.51,10.15c2.34,2.34,5.77,3.51,10.28,3.51h60.74
			c4.59,0,8.02-1.17,10.28-3.51c2.25-2.34,3.38-5.72,3.38-10.15V1010.4z"/>
		<path class="st1" d="M1458.78,1055.93c0,5.81-0.74,11.03-2.21,15.67c-1.47,4.64-3.43,8.71-5.85,12.23
			c-2.43,3.51-5.25,6.5-8.45,8.97c-3.21,2.47-6.57,4.49-10.08,6.05c-3.51,1.56-7.07,2.71-10.67,3.45c-3.6,0.74-7,1.11-10.21,1.11
			h-91.57v-33.82h91.31c4.59,0,8.06-1.17,10.41-3.51c2.34-2.34,3.51-5.72,3.51-10.15c-0.44-9.02-4.99-13.53-13.66-13.53h-52.42
			c-7.46,0-13.79-1.3-18.99-3.9c-5.2-2.6-9.43-5.85-12.68-9.76c-3.25-3.9-5.59-8.11-7.02-12.62c-1.43-4.51-2.15-8.71-2.15-12.62
			c0-7.54,1.34-13.9,4.03-19.05c2.69-5.16,6.07-9.34,10.15-12.55c4.07-3.21,8.5-5.53,13.27-6.96s9.23-2.15,13.4-2.15H1442v33.82
			h-82.86c-1.74,0-3.1,0.2-4.1,0.59c-1,0.39-1.74,0.91-2.21,1.56c-0.48,0.65-0.76,1.35-0.85,2.08c-0.09,0.74-0.13,1.45-0.13,2.15
			c0.09,1.39,0.35,2.47,0.78,3.25c0.43,0.78,0.98,1.35,1.63,1.69c0.65,0.35,1.39,0.54,2.21,0.59c0.82,0.05,1.63,0.07,2.41,0.07
			h52.42c8.67,0,16.04,1.56,22.11,4.68c6.07,3.12,10.97,7.05,14.7,11.77c3.73,4.73,6.44,9.86,8.13,15.41
			C1457.93,1046,1458.78,1051.16,1458.78,1055.93z"/>
		<path class="st1" d="M1607.97,996.62h-59.05v106.79h-34.21V996.62h-43.96V962.8h43.96v-45.91h34.21v45.91h59.05V996.62z"/>
	</g>
</g>
</svg>
